<svg xmlns="http://www.w3.org/2000/svg" version="1.1" xmlns:xlink="http://www.w3.org/1999/xlink" xmlns:svgjs="http://svgjs.dev/svgjs" width="1000" height="1000" viewBox="0 0 1000 1000"><rect width="1000" height="1000" fill="#000000"></rect><g transform="matrix(0.7,0,0,0.7,149.57575757575756,381.169768373568)"><svg viewBox="0 0 396 135" data-background-color="#ffffff" preserveAspectRatio="xMidYMid meet" height="340" width="1000" xmlns="http://www.w3.org/2000/svg" xmlns:xlink="http://www.w3.org/1999/xlink"><g id="tight-bounds" transform="matrix(1,0,0,1,0.2400000000000091,-0.09629718668773535)"><svg viewBox="0 0 395.52 135.1925943733755" height="135.1925943733755" width="395.52"><g><svg viewBox="0 0 715.1093738181818 244.43135999999998" height="135.1925943733755" width="395.52"><g transform="matrix(1,0,0,1,0,58.542952727272734)"><svg viewBox="0 0 395.52 127.34545454545452" height="127.34545454545452" width="395.52"><g><svg viewBox="0 0 395.52 127.34545454545452" height="127.34545454545452" width="395.52"><g><svg viewBox="0 0 395.52 127.34545454545452" height="127.34545454545452" width="395.52"><g transform="matrix(1,0,0,1,0,0)"><svg width="395.52" viewBox="-0.20000000298023224 -42.5 145.19000244140625 46.75" height="127.34545454545452" data-palette-color="#1ebbd7"><path d="M49.3-24.1L49.3-24.1Q50.3-23.6 50.3-22.65L50.3-22.65Q50.3-21.5 49.05-19.3L49.05-19.3Q44.9-11.85 43.6-4.15L43.6-4.15Q43.25-2.05 43.25-0.35L43.25-0.35Q43.25 3.1 45.1 3.1L45.1 3.1 45.65 3.1Q46.55 3.1 46.55 3.5L46.55 3.5Q46.55 4.1 45.45 4.25L45.45 4.25 44.85 4.25Q43.2 3.95 42.3 2.5 41.4 1.05 41.33-0.48 41.25-2 41.25-3L41.25-3Q41.25-5.85 41.9-8.95L41.9-8.95Q38.35-3.1 34.9-0.3L34.9-0.3Q31.65 2.3 28.75 2.3L28.75 2.3Q26.65 2.3 25.5 0.95L25.5 0.95Q24-0.85 24-3.58 24-6.3 25.55-10.73 27.1-15.15 29.68-20.8 32.25-26.45 33.02-29.55 33.8-32.65 33.8-35.1L33.8-35.1Q33.8-38.75 31.85-39.9L31.85-39.9Q29.5-41.15 26.55-41.15L26.55-41.15Q21.25-41.15 15.2-37.65L15.2-37.65Q6.25-32.4 3.1-24.4L3.1-24.4Q1.8-21.05 1.8-18.28 1.8-15.5 2.75-13.25L2.75-13.25Q4.85-8.15 10.05-8.15L10.05-8.15Q16.15-8.15 19.8-14.35L19.8-14.35Q21.8-17.65 21.8-20.2L21.8-20.2Q21.8-23.95 18.4-23.95L18.4-23.95Q17.6-23.95 16.38-23.68 15.15-23.4 15.25-23.7L15.25-23.7Q15.4-24.1 16.75-24.7 18.1-25.3 19.45-25.3L19.45-25.3Q21.5-25.3 22.55-23.55L22.55-23.55Q23.25-22.3 23.25-20.6 23.25-18.9 22.4-16.6L22.4-16.6Q20.5-11.55 15.9-8.8L15.9-8.8Q12.5-6.7 9.4-6.7 6.3-6.7 3.9-8.55L3.9-8.55Q-0.2-11.7-0.2-18.13-0.2-24.55 4.7-30.7L4.7-30.7Q8.65-35.65 15.3-39.3L15.3-39.3Q21.05-42.5 26.4-42.5L26.4-42.5Q29.2-42.5 31.6-41.5L31.6-41.5Q36.45-39.4 36.45-33.45L36.45-33.45Q36.45-29 33.6-22.4L33.6-22.4Q31.95-18.5 30.43-15.28 28.9-12.05 27.9-8.75 26.9-5.45 26.9-3.2L26.9-3.2Q26.9 1 29.7 1L29.7 1Q32.7 1 36.75-4L36.75-4 38.1-5.85Q40.1-8.75 43.28-15.08 46.45-21.4 46.5-21.45L46.5-21.45Q48-24.1 49.3-24.1ZM62.8-13.5L62.8-13.5Q62.8-14.85 61.45-14.85L61.45-14.85Q59.45-14.85 56.82-12.58 54.2-10.3 52.45-7.8L52.45-7.8Q51.7-6.35 51.22-4.15 50.75-1.95 50.75-1.1 50.75-0.25 51.05 0L51.05 0 47.9 0Q47.15 0 47.52-1.33 47.9-2.65 48.55-4.2 49.2-5.75 50.17-7.78 51.15-9.8 51.6-10.85L51.6-10.85Q47.5-3.1 46.3-1.95L46.3-1.95Q45.8-1.5 45.8-2.25L45.8-2.25Q45.8-2.4 45.9-2.6L45.9-2.6Q47.65-4.9 52.87-15.1 58.1-25.3 60.2-28.45L60.2-28.45Q61.9-30.9 63.5-30.9L63.5-30.9Q63.5-30.9 63.55-30.9L63.55-30.9 63.8-30.9Q63.85-30.9 64.67-30.75 65.5-30.6 65.9-30.7L65.9-30.7Q64.05-29.3 60.8-24.28 57.55-19.25 55.65-15.48 53.75-11.7 53.1-9.75L53.1-9.75Q57.65-15.4 61.25-16.75L61.25-16.75Q62.95-17.3 63.95-17.3L63.95-17.3Q66.15-17.3 66.15-15.45L66.15-15.45Q66.15-14.85 65.9-14.1L65.9-14.1Q65.2-12.2 63.02-10.68 60.85-9.15 58.25-8.9L58.25-8.9Q57.65-7.5 57.65-6.33 57.65-5.15 57.9-4.2L57.9-4.2Q58.5-1.8 60.15-1.25L60.15-1.25Q60.5-1.15 60.85-1.15L60.85-1.15Q62.25-1.15 64.15-2.9L64.15-2.9Q65.7-4.6 68.2-9.75L68.2-9.75Q68.55-10.4 68.75-10.18 68.95-9.95 68.95-9.75 68.95-9.55 68.2-7.8 67.45-6.05 66.1-3.95L66.1-3.95Q63.25 0.35 59.8 0.35L59.8 0.35Q57.7 0.35 56.55-0.85L56.55-0.85Q54.9-2.55 54.9-5.3L54.9-5.3Q54.9-6.7 55.65-8.15 56.4-9.6 57.4-9.7L57.4-9.7Q57.55-9.7 57.7-9.7L57.7-9.7Q59.45-9.7 61.12-11.05 62.8-12.4 62.8-13.5ZM77.2-17.5L77.2-17.5Q80.84-17.5 80.84-12.9L80.84-12.9Q80.84-10.8 79.75-8.4L79.75-8.4Q78.34-5.15 75.55-2.5L75.55-2.5Q76.2-1.25 77.9-1.25L77.9-1.25Q79.25-1.25 80.45-2.6L80.45-2.6Q81.95-4.15 82.59-5.33 83.25-6.5 83.55-7.05 83.84-7.6 84.32-8.63 84.8-9.65 84.9-9.88 85-10.1 85.25-10.1L85.25-10.1Q85.75-10.15 85.75-9.75L85.75-9.75Q85.75-9.6 85.65-9.4L85.65-9.4 85.34-8.7Q85.05-8 84.9-7.7 84.75-7.4 84.37-6.63 84-5.85 83.72-5.4 83.45-4.95 82.97-4.2 82.5-3.45 82.12-3 81.75-2.55 81.2-2 80.65-1.45 80.15-1.15L80.15-1.15Q78.9-0.4 77.8-0.4L77.8-0.4Q75.75-0.4 74.59-1.7L74.59-1.7Q72.3 0 70.34 0L70.34 0Q66.7 0 66.7-4.6L66.7-4.6Q66.7-6.7 67.8-9.1L67.8-9.1Q69.3-12.6 72.02-15.05 74.75-17.5 77.2-17.5ZM77.75-15.95L77.75-15.95Q76.4-15.95 74.55-14.15 72.7-12.35 71.25-9.25L71.25-9.25Q69.5-5.65 69.5-3.35 69.5-1.05 71.25-1.05L71.25-1.05Q72.5-1.05 74.05-2.4L74.05-2.4Q73.25-3.55 73.25-4.85L73.25-4.85Q73.34-7 75-7L75-7Q75.65-7 76.07-6.55 76.5-6.1 76.5-5.73 76.5-5.35 76.4-4.95L76.4-4.95Q77.25-6.2 78.34-8.5L78.34-8.5Q79.59-11.05 79.59-13.5 79.59-15.95 77.75-15.95ZM108.49-16.4L108.49-16.4Q102.39-5.55 102.39-2.4L102.39-2.4Q102.39-1 103.34-1L103.34-1Q104.54-1 106.09-2.8L106.09-2.8Q108.44-5.65 110.19-9.65L110.19-9.65Q110.49-10.35 110.79-10.2 111.09-10.05 111.09-9.8 111.09-9.55 110.59-8.55 110.09-7.55 109.79-6.95 109.49-6.35 108.47-4.65 107.44-2.95 106.72-2.15 105.99-1.35 104.87-0.58 103.74 0.2 102.32 0.2 100.89 0.2 99.89-1.2L99.89-1.2Q99.44-1.85 99.44-2.98 99.44-4.1 99.94-5.7 100.44-7.3 102.69-10.9L102.69-10.9Q103.24-11.8 103.24-12.33 103.24-12.85 102.42-12.85 101.59-12.85 99.44-10.85 97.29-8.85 94.92-5.45 92.54-2.05 92.09 0L92.09 0Q91.24 0 90.84-0.7 90.44-1.4 90.44-1.9L90.44-1.9Q90.44-3.95 93.19-9.7L93.19-9.7Q94.09-11.6 94.14-12.28 94.19-12.95 93.97-12.98 93.74-13 93.34-12.8L93.34-12.8Q92.44-12.35 90.59-10.6L90.59-10.6Q87.09-7.4 83.69-0.85L83.69-0.85Q83.44-0.3 83.07-0.18 82.69-0.05 81.59 0 80.49 0.05 80.14 0.25L80.14 0.25Q81.04-1.5 83.29-6.3L83.29-6.3Q87.34-14.9 88.69-16.2L88.69-16.2Q89.29-16.8 90.34-16.8L90.34-16.8Q90.54-16.8 91.37-16.65 92.19-16.5 92.59-16.6L92.59-16.6Q90.74-15.6 86.54-7.2L86.54-7.2Q88.89-10.1 89.92-11 90.94-11.9 91.44-12.35 91.94-12.8 92.22-13.05 92.49-13.3 93.02-13.78 93.54-14.25 93.82-14.48 94.09-14.7 94.59-15.1 95.09-15.5 95.37-15.63 95.64-15.75 96.12-16.05 96.59-16.35 96.82-16.35 97.04-16.35 97.44-16.48 97.84-16.6 97.99-16.4L97.99-16.4Q98.99-16 98.99-15.15L98.99-15.15Q98.99-14.4 97.29-11.3 95.59-8.2 95.09-7.2L95.09-7.2Q97.29-9.95 99.29-11.73 101.29-13.5 104.02-15 106.74-16.5 107.99-16.5L107.99-16.5Q108.29-16.5 108.49-16.4ZM133.84-16.4L133.84-16.4Q127.74-5.55 127.74-2.4L127.74-2.4Q127.74-1 128.69-1L128.69-1Q129.89-1 131.44-2.8L131.44-2.8Q133.79-5.65 135.54-9.65L135.54-9.65Q135.84-10.35 136.14-10.2 136.44-10.05 136.44-9.8 136.44-9.55 135.94-8.55 135.44-7.55 135.14-6.95 134.84-6.35 133.81-4.65 132.79-2.95 132.06-2.15 131.34-1.35 130.22-0.58 129.09 0.2 127.67 0.2 126.24 0.2 125.24-1.2L125.24-1.2Q124.79-1.85 124.79-2.98 124.79-4.1 125.29-5.7 125.79-7.3 128.04-10.9L128.04-10.9Q128.59-11.8 128.59-12.33 128.59-12.85 127.77-12.85 126.94-12.85 124.79-10.85 122.64-8.85 120.27-5.45 117.89-2.05 117.44 0L117.44 0Q116.59 0 116.19-0.7 115.79-1.4 115.79-1.9L115.79-1.9Q115.79-3.95 118.54-9.7L118.54-9.7Q119.44-11.6 119.49-12.28 119.54-12.95 119.31-12.98 119.09-13 118.69-12.8L118.69-12.8Q117.79-12.35 115.94-10.6L115.94-10.6Q112.44-7.4 109.04-0.85L109.04-0.85Q108.79-0.3 108.42-0.18 108.04-0.05 106.94 0 105.84 0.05 105.49 0.25L105.49 0.25Q106.39-1.5 108.64-6.3L108.64-6.3Q112.69-14.9 114.04-16.2L114.04-16.2Q114.64-16.8 115.69-16.8L115.69-16.8Q115.89-16.8 116.72-16.65 117.54-16.5 117.94-16.6L117.94-16.6Q116.09-15.6 111.89-7.2L111.89-7.2Q114.24-10.1 115.27-11 116.29-11.9 116.79-12.35 117.29-12.8 117.56-13.05 117.84-13.3 118.37-13.78 118.89-14.25 119.17-14.48 119.44-14.7 119.94-15.1 120.44-15.5 120.72-15.63 120.99-15.75 121.47-16.05 121.94-16.35 122.17-16.35 122.39-16.35 122.79-16.48 123.19-16.6 123.34-16.4L123.34-16.4Q124.34-16 124.34-15.15L124.34-15.15Q124.34-14.4 122.64-11.3 120.94-8.2 120.44-7.2L120.44-7.2Q122.64-9.95 124.64-11.73 126.64-13.5 129.37-15 132.09-16.5 133.34-16.5L133.34-16.5Q133.64-16.5 133.84-16.4ZM142.39-19.45Q141.69-18.85 140.84-18.85 139.99-18.85 139.49-19.45 138.99-20.05 139.09-20.9L139.09-20.9Q139.24-21.75 139.94-22.35 140.64-22.95 141.49-22.95 142.34-22.95 142.86-22.35 143.39-21.75 143.24-20.9 143.09-20.05 142.39-19.45ZM137.49-1.1L137.49-1.1Q138.44-1.1 139.49-2.05L139.49-2.05Q141.34-3.9 144.19-9.6L144.19-9.6Q144.54-10.35 144.89-10.05L144.89-10.05Q144.99-9.95 144.99-9.73 144.99-9.5 144.59-8.63 144.19-7.75 143.86-7.05 143.54-6.35 142.61-4.78 141.69-3.2 140.94-2.35L140.94-2.35Q138.89 0 137.06 0 135.24 0 134.44-1.1 133.64-2.2 133.64-3.55 133.64-4.9 134.29-6.5L134.29-6.5 137.49-14.65Q137.59-14.95 137.59-15.45 137.59-15.95 136.99-16.75L136.99-16.75 139.74-16.8Q140.89-16.8 141.09-16.38 141.29-15.95 140.79-15.05L140.79-15.05 136.79-5.7Q135.94-3.85 135.94-2.55L135.94-2.55Q135.94-1.1 137.49-1.1Z" opacity="1" transform="matrix(1,0,0,1,0,0)" fill="#ffffff" class="undefined-text-0" data-fill-palette-color="primary" id="text-0"></path></svg></g></svg></g></svg></g></svg></g><g transform="matrix(1,0,0,1,470.6780138181818,0)"><svg viewBox="0 0 244.43135999999998 244.43135999999998" height="244.43135999999998" width="244.43135999999998"><g><svg viewBox="0 0 244.43135999999998 244.43135999999998" height="244.43135999999998" width="244.43135999999998"><g transform="matrix(1,0,0,1,64.60325209528877,64.60265593644993)"><svg viewBox="0 0 115.22485580942245 115.22604812710013" height="115.22604812710013" width="115.22485580942245"><g><svg xmlns="http://www.w3.org/2000/svg" xmlns:xlink="http://www.w3.org/1999/xlink" version="1.1" x="0" y="0" viewBox="2.1510000228881836 2.1500015258789062 95.84900665283203 95.8499984741211" enable-background="new 0 0 100 100" xml:space="preserve" height="115.22604812710013" width="115.22485580942245" class="icon-s-0" data-fill-palette-color="accent" id="s-0"><g fill="#1ebbd7" data-fill-palette-color="accent"><path fill="#ffffff" d="M98 50.075C98 76.543 76.542 98 50.075 98 23.606 98 2.151 76.543 2.151 50.075c0-26.468 21.456-47.925 47.924-47.925C76.542 2.15 98 23.607 98 50.075zM49.797 6.185c-24.373 0-44.133 19.758-44.133 44.131 0 24.375 19.76 44.133 44.133 44.133S93.93 74.691 93.93 50.316C93.93 25.943 74.17 6.185 49.797 6.185z" data-fill-palette-color="accent"></path><path fill="#ffffff" d="M90.862 50.438c0 22.613-18.331 40.945-40.944 40.945-22.614 0-40.945-18.332-40.945-40.945 0-22.614 18.332-40.945 40.945-40.945C72.531 9.493 90.862 27.825 90.862 50.438zM21.963 34.746l-8.713 3.712 4.68 8.552-6.778 7.423 8.068 5.97-3.066 9.198 9.681 2.258 1.131 9.683 9.843-1.776 4.679 8.231 8.229-5.811 8.067 5.811 4.843-8.393 9.681 2.259 1.131-10.329 9.844-1.771-3.067-9.521 8.067-5.809-6.454-7.262 4.519-8.875-9.037-3.873 1.129-9.843-10.166-0.162-2.904-9.52-9.197 3.872-6.454-7.1-6.454 7.262-9.197-4.034-3.228 9.52-9.843-0.323L21.963 34.746z" data-fill-palette-color="accent"></path><path fill="#ffffff" d="M76.019 60.886l2.098 5.809-6.132 1.13-10.166-7.906-1.291 1.452 8.876 9.519-0.322 5.973-5.971-1.454L57.001 63.82c-0.675 0.37-1.38 0.693-2.111 0.963l4.671 12.562-3.229 4.841-4.355-3.389-1.265-13.12c-0.382 0.031-0.769 0.05-1.156 0.05s-0.77-0.019-1.15-0.047l-0.624 13.278-4.841 3.551-3.066-5.002 4.348-12.723c-0.708-0.261-1.391-0.568-2.047-0.924l-5.852 11.547-5.809 1.292-0.646-5.486 8.913-9.851c-0.566-0.549-1.092-1.14-1.57-1.769l-10.085 8.068-5.809-0.967 1.613-5.648 12.263-5.002h0.001c-0.312-0.77-0.563-1.569-0.748-2.394l-12.646 3.2-4.518-3.388 3.549-4.035h13.253c0.032-0.624 0.105-1.24 0.209-1.843l-0.068-0.092-13.071-2.905-2.42-4.357 5.325-2.582 11.664 5.611c0.264-0.522 0.555-1.027 0.875-1.514L26.158 34.1l-0.484-5.647h5.809l7.906 9.521c0 0 0.21 0.074 0.498 0.165 0.478-0.383 0.978-0.738 1.5-1.063-0.114-0.391-0.222-0.717-0.222-0.717L34.71 26.354l1.453-5.809 5.325 2.098 4.246 12.578c0.531-0.134 1.073-0.24 1.625-0.317l-1.354-13.067 3.712-4.034 3.712 3.872L52.007 34.94c0.646 0.103 1.274 0.246 1.891 0.426l3.565-12.401 5.486-2.743 1.937 5.971-6.779 10.488 1.776 1.614 8.23-9.682h5.81L73.438 34.1l-10.489 7.261 0.161 1.292c0 0-0.006 0.022-0.016 0.058 0.146 0.264 0.288 0.532 0.423 0.805 1.75-0.791 11.856-5.704 11.856-5.704l5.325 2.582c0 0-1.936 4.68-2.42 4.68-0.426 0-10.897 1.985-13.471 2.474 0.126 0.717 0.203 1.451 0.227 2.198l13.403-0.154 3.712 4.197-4.681 3.387-12.85-3.331c-0.186 0.776-0.428 1.532-0.727 2.256L76.019 60.886zM49.879 38.618c-1.157 0-2.098 0.94-2.098 2.098 0 1.159 0.94 2.099 2.098 2.099s2.098-0.939 2.098-2.099C51.977 39.558 51.036 38.618 49.879 38.618zM56.494 41.361c-1.158 0-2.097 0.94-2.097 2.098 0 1.159 0.938 2.099 2.097 2.099 1.159 0 2.099-0.94 2.099-2.099C58.593 42.301 57.653 41.361 56.494 41.361zM59.399 48.138c-1.158 0-2.097 0.941-2.097 2.098 0 1.158 0.938 2.097 2.097 2.097 1.159 0 2.099-0.938 2.099-2.097C61.498 49.079 60.559 48.138 59.399 48.138zM56.655 54.916c-1.157 0-2.098 0.939-2.098 2.097 0 1.16 0.94 2.097 2.098 2.097 1.159 0 2.099-0.938 2.099-2.097C58.754 55.855 57.814 54.916 56.655 54.916zM49.879 57.98c-1.157 0-2.098 0.941-2.098 2.1 0 1.157 0.94 2.097 2.098 2.097s2.098-0.939 2.098-2.097C51.977 58.922 51.036 57.98 49.879 57.98zM43.263 54.916c-1.159 0-2.097 0.939-2.097 2.097 0 1.16 0.938 2.097 2.097 2.097 1.159 0 2.098-0.937 2.098-2.097C45.361 55.855 44.422 54.916 43.263 54.916zM40.197 48.138c-1.159 0-2.097 0.941-2.097 2.098 0 1.158 0.938 2.097 2.097 2.097 1.159 0 2.098-0.938 2.098-2.097C42.295 49.079 41.356 48.138 40.197 48.138zM42.779 41.361c-1.159 0-2.097 0.94-2.097 2.098 0 1.159 0.938 2.099 2.097 2.099s2.097-0.94 2.097-2.099C44.876 42.301 43.938 41.361 42.779 41.361zM49.717 47.494c-1.516 0-2.742 1.227-2.742 2.743 0 1.515 1.227 2.741 2.742 2.741s2.742-1.227 2.742-2.741C52.459 48.721 51.232 47.494 49.717 47.494z" data-fill-palette-color="accent"></path></g></svg></g></svg></g><path d="M23.603 51.249V51.249C24.094 50.863 24.58 50.784 25.059 51.011V51.011C25.633 51.283 26.324 51.993 27.133 53.14V53.14C29.888 56.993 33.042 60.162 36.592 62.647V62.647C37.562 63.322 38.473 63.862 39.325 64.265V64.265C41.06 65.086 42.147 65.033 42.586 64.106V64.106L42.783 63.689C42.998 63.235 43.204 63.054 43.399 63.147V63.147C43.702 63.29 43.76 63.658 43.573 64.249V64.249L43.362 64.693C42.816 65.455 42.075 65.887 41.137 65.992 40.19 66.1 39.326 65.992 38.545 65.668 37.763 65.344 37.12 65.063 36.616 64.824V64.824C35.19 64.149 33.775 63.279 32.372 62.213V62.213C34.464 65.381 35.802 68.166 36.387 70.567V70.567C36.923 72.813 36.845 74.665 36.155 76.122V76.122C35.657 77.176 34.934 77.83 33.987 78.084V78.084C32.723 78.405 31.409 78.243 30.047 77.598 28.677 76.949 27.066 75.711 25.213 73.884 23.359 72.056 21.322 69.825 19.102 67.191 16.881 64.556 15.083 62.677 13.707 61.555 12.34 60.429 11.041 59.574 9.811 58.992V58.992C7.975 58.123 6.538 58.041 5.501 58.747V58.747C4.318 59.631 3.375 60.815 2.674 62.297V62.297C1.416 64.953 0.946 68.214 1.263 72.079V72.079C1.767 77.817 3.655 82.426 6.927 85.906V85.906C8.295 87.357 9.676 88.413 11.07 89.073 12.458 89.73 13.83 90.086 15.187 90.141V90.141C18.247 90.3 20.394 89.077 21.628 86.471V86.471C23.077 83.411 22.681 80.227 20.439 76.918V76.918C19.255 75.13 18.026 73.934 16.751 73.33V73.33C14.865 72.437 13.517 72.845 12.707 74.555V74.555C12.519 74.953 12.348 75.493 12.194 76.177 12.043 76.855 11.904 77.133 11.776 77.011V77.011C11.61 76.839 11.539 76.346 11.562 75.531 11.579 74.712 11.748 73.962 12.071 73.281V73.281C12.558 72.252 13.364 71.684 14.489 71.575V71.575C15.287 71.521 16.112 71.695 16.964 72.098 17.815 72.502 18.717 73.191 19.668 74.167V74.167C21.754 76.32 22.937 78.877 23.219 81.838V81.838C23.467 84.04 23.223 85.917 22.488 87.469 21.75 89.028 20.632 90.19 19.134 90.956V90.956C16.583 92.266 13.695 92.158 10.471 90.631 7.247 89.105 4.675 86.381 2.755 82.46V82.46C1.207 79.302 0.308 75.621 0.059 71.417V71.417C-0.185 67.772 0.328 64.608 1.598 61.927V61.927C2.264 60.52 3.135 59.333 4.21 58.367V58.367C6.416 56.431 9.012 56.169 11.996 57.582V57.582C14.23 58.639 16.664 60.668 19.298 63.669V63.669C20.862 65.421 22.27 67.065 23.521 68.599 24.781 70.131 26.119 71.537 27.536 72.818 28.957 74.108 30.232 75.021 31.361 75.555V75.555C33.468 76.553 34.855 76.348 35.521 74.941V74.941C36.232 73.44 35.813 71.079 34.264 67.858V67.858L33.356 66.178C32.374 64.484 30.672 62.091 28.252 58.999 25.834 55.9 24.618 54.332 24.605 54.295V54.295C23.629 52.914 23.295 51.898 23.603 51.249ZM65.915 24.018V24.018C65.518 23.385 65 23.269 64.362 23.67V23.67C63.422 24.26 62.669 25.478 62.105 27.323 61.546 29.165 61.222 30.934 61.133 32.631V32.631C61.21 33.529 61.462 34.567 61.886 35.743 62.311 36.918 62.649 37.707 62.901 38.109 63.15 38.506 63.382 38.718 63.598 38.748V38.748L61.381 40.139C61.026 40.361 60.743 40.107 60.53 39.374 60.315 38.636 60.129 37.809 59.975 36.892 59.826 35.972 59.683 34.891 59.547 33.65 59.405 32.412 59.285 31.478 59.186 30.848V30.848C59.544 35.7 59.609 38.576 59.383 39.476V39.476C59.286 39.834 59.126 39.835 58.903 39.48V39.48C58.859 39.409 58.831 39.312 58.819 39.187V39.187C58.962 37.59 58.756 33.623 58.201 27.288 57.652 20.949 57.408 16.73 57.468 14.633V14.633C57.543 12.979 57.956 11.916 58.707 11.445V11.445C58.707 11.445 58.719 11.438 58.742 11.423V11.423L58.92 11.311C58.943 11.297 59.173 11.202 59.607 11.028 60.036 10.858 60.331 10.69 60.49 10.524V10.524C60.033 11.726 59.78 13.99 59.732 17.316 59.687 20.632 59.774 23.458 59.994 25.792 60.218 28.132 60.464 29.857 60.731 30.966V30.966C61.203 26.962 62.085 24.114 63.38 22.42V22.42C64.015 21.659 64.569 21.13 65.042 20.833V20.833C66.077 20.184 66.867 20.294 67.412 21.163V21.163C67.59 21.447 67.731 21.803 67.836 22.232V22.232C68.065 23.333 67.892 24.562 67.318 25.919 66.744 27.277 65.885 28.397 64.741 29.279V29.279C64.873 30.119 65.111 30.815 65.456 31.364 65.801 31.914 66.174 32.377 66.574 32.752V32.752C67.566 33.704 68.531 34.066 69.469 33.841V33.841C69.665 33.784 69.842 33.706 70.002 33.605V33.605C70.664 33.19 71.182 32.288 71.555 30.9V30.9C71.782 29.645 71.725 27.44 71.384 24.283V24.283C71.357 23.872 71.424 23.689 71.585 23.737 71.747 23.784 71.857 23.854 71.916 23.949 71.976 24.044 72.086 24.613 72.247 25.658 72.408 26.702 72.482 27.917 72.468 29.301V29.301C72.395 32.166 71.548 34.106 69.928 35.123V35.123C68.94 35.742 67.996 35.939 67.096 35.713V35.713C65.821 35.4 64.779 34.6 63.97 33.311V33.311C63.554 32.648 63.311 31.866 63.239 30.963 63.167 30.061 63.35 29.439 63.787 29.099V29.099C63.858 29.054 63.929 29.01 64 28.965V28.965C64.822 28.449 65.426 27.626 65.812 26.494 66.207 25.364 66.242 24.539 65.915 24.018ZM109.909 5.986V5.986C111.925 5.733 113.091 6.874 113.409 9.409V9.409C113.554 10.566 113.405 11.844 112.961 13.243V13.243C112.417 15.127 111.464 16.896 110.102 18.551V18.551C110.549 19.199 111.24 19.464 112.175 19.347V19.347C112.917 19.254 113.573 18.792 114.144 17.96V17.96C114.861 17.005 115.36 16.182 115.639 15.493 115.911 14.798 116.11 14.287 116.238 13.962 116.367 13.643 116.528 13.183 116.72 12.582 116.913 11.988 117.029 11.625 117.069 11.494 117.108 11.362 117.194 11.288 117.326 11.271V11.271C117.599 11.209 117.75 11.289 117.778 11.51V11.51C117.788 11.593 117.772 11.69 117.73 11.801V11.801L117.553 12.414C117.443 12.822 117.356 13.114 117.294 13.291 117.232 13.468 117.123 13.78 116.968 14.229 116.815 14.684 116.677 15.046 116.556 15.315 116.434 15.576 116.271 15.931 116.067 16.379 115.856 16.827 115.661 17.186 115.484 17.454 115.307 17.73 115.086 18.039 114.819 18.382 114.56 18.724 114.302 18.996 114.046 19.197V19.197C113.404 19.692 112.782 19.978 112.18 20.053V20.053C111.051 20.195 110.126 19.948 109.406 19.314V19.314C108.256 20.408 107.144 21.022 106.071 21.157V21.157C104.055 21.41 102.888 20.269 102.57 17.734V17.734C102.425 16.577 102.575 15.299 103.018 13.899V13.899C103.601 11.871 104.559 10.086 105.893 8.547 107.22 7.009 108.558 6.155 109.909 5.986ZM110.528 7.217V7.217C109.786 7.31 108.969 7.915 108.075 9.033 107.174 10.153 106.432 11.614 105.849 13.418V13.418C105.136 15.526 104.859 17.214 105.018 18.482 105.177 19.75 105.737 20.323 106.7 20.202V20.202C107.393 20.115 108.118 19.644 108.876 18.79V18.79C108.354 18.215 108.048 17.567 107.957 16.847V16.847C107.864 15.656 108.271 15.003 109.179 14.889V14.889C109.539 14.844 109.852 14.931 110.119 15.151 110.386 15.371 110.532 15.585 110.558 15.793 110.584 16 110.583 16.215 110.555 16.437V16.437C110.933 15.693 111.347 14.649 111.798 13.305V13.305C112.307 11.813 112.477 10.391 112.308 9.041 112.139 7.697 111.546 7.089 110.528 7.217ZM170.93 17.316V17.316C165.633 21.755 162.676 24.79 162.059 26.423V26.423C161.785 27.148 161.896 27.604 162.393 27.791V27.791C163.013 28.026 163.905 27.829 165.067 27.201V27.201C166.839 26.185 168.575 24.811 170.274 23.08V23.08C170.562 22.771 170.77 22.685 170.897 22.823 171.024 22.96 171.063 23.094 171.014 23.225 170.964 23.355 170.712 23.629 170.256 24.046 169.803 24.473 169.441 24.81 169.168 25.057 168.893 25.311 168.321 25.778 167.453 26.457 166.591 27.139 165.891 27.617 165.355 27.892 164.824 28.169 164.19 28.396 163.452 28.572 162.718 28.758 161.979 28.71 161.234 28.428 160.496 28.149 160.003 27.549 159.755 26.627V26.627C159.654 26.201 159.715 25.694 159.937 25.106 160.157 24.525 160.551 23.868 161.119 23.135 161.696 22.398 162.922 21.316 164.796 19.89V19.89C165.259 19.535 165.542 19.221 165.646 18.946 165.749 18.672 165.586 18.454 165.155 18.291 164.73 18.13 163.764 18.358 162.255 18.974 160.746 19.591 159.04 20.551 157.137 21.854 155.236 23.15 153.967 24.287 153.33 25.262V25.262C152.893 25.097 152.638 24.792 152.568 24.347 152.494 23.909 152.507 23.559 152.606 23.298V23.298C153.008 22.234 154.488 20.48 157.046 18.036V18.036C157.882 17.225 158.38 16.648 158.539 16.306 158.699 15.963 158.722 15.763 158.61 15.705 158.497 15.648 158.32 15.633 158.078 15.661V15.661C157.519 15.718 156.588 16.02 155.285 16.564V16.564C152.84 17.544 150.092 19.397 147.039 22.123V22.123C146.8 22.361 146.57 22.476 146.349 22.467 146.135 22.461 145.736 22.362 145.151 22.171 144.573 21.983 144.173 21.906 143.951 21.942V21.942C144.758 21.209 146.217 19.817 148.328 17.764V17.764C152.119 14.092 154.494 12.053 155.453 11.647V11.647C155.885 11.452 156.372 11.457 156.914 11.662V11.662C157.018 11.701 157.271 11.841 157.673 12.083 158.067 12.321 158.379 12.454 158.608 12.481V12.481C157.453 12.634 154.961 14.479 151.131 18.017V18.017C152.92 16.977 154.168 16.321 154.874 16.051 155.585 15.79 156.112 15.59 156.456 15.451 156.806 15.315 157.077 15.208 157.27 15.132 157.463 15.056 157.743 14.949 158.108 14.811 158.47 14.664 158.744 14.558 158.932 14.495 159.121 14.432 159.385 14.345 159.725 14.235 160.065 14.125 160.319 14.064 160.488 14.053 160.647 14.046 160.88 14.011 161.188 13.948 161.495 13.885 161.707 13.876 161.825 13.92 161.942 13.965 162.118 13.994 162.352 14.008 162.579 14.019 162.712 14.091 162.751 14.226V14.226C163.194 14.632 163.333 15.054 163.168 15.491V15.491C163.02 15.883 162.201 16.716 160.713 17.989 159.222 19.269 158.248 20.117 157.792 20.534V20.534C159.473 19.543 161.006 18.783 162.392 18.254 163.781 17.719 165.327 17.33 167.032 17.086 168.742 16.844 169.924 16.847 170.577 17.094V17.094C170.727 17.15 170.845 17.225 170.929 17.316ZM214.727 53.863V53.863C207.943 55.175 203.884 56.395 202.553 57.524V57.524C201.962 58.025 201.838 58.478 202.181 58.882V58.882C202.61 59.388 203.485 59.649 204.806 59.663V59.663C206.849 59.634 209.033 59.274 211.358 58.585V58.585C211.76 58.454 211.984 58.48 212.028 58.662 212.073 58.844 212.041 58.98 211.935 59.071 211.828 59.161 211.475 59.278 210.873 59.421 210.271 59.575 209.791 59.694 209.432 59.778 209.068 59.867 208.342 59.997 207.253 60.17 206.168 60.348 205.325 60.427 204.722 60.407 204.124 60.392 203.46 60.283 202.729 60.079 201.997 59.885 201.374 59.484 200.859 58.877 200.349 58.275 200.209 57.511 200.439 56.584V56.584C200.558 56.163 200.857 55.749 201.336 55.343 201.81 54.941 202.474 54.558 203.326 54.192 204.188 53.828 205.785 53.476 208.116 53.139V53.139C208.692 53.053 209.092 52.915 209.316 52.725 209.54 52.536 209.503 52.265 209.205 51.914 208.911 51.568 207.955 51.298 206.337 51.105 204.718 50.912 202.761 50.924 200.465 51.14 198.174 51.353 196.513 51.731 195.483 52.275V52.275C195.18 51.918 195.106 51.528 195.26 51.105 195.408 50.686 195.589 50.386 195.802 50.206V50.206C196.67 49.47 198.815 48.654 202.237 47.758V47.758C203.362 47.454 204.077 47.191 204.383 46.969 204.688 46.747 204.806 46.583 204.735 46.478 204.665 46.373 204.517 46.274 204.292 46.181V46.181C203.775 45.96 202.815 45.772 201.411 45.617V45.617C198.798 45.287 195.496 45.574 191.504 46.478V46.478C191.179 46.57 190.922 46.559 190.734 46.444 190.55 46.335 190.248 46.055 189.83 45.605 189.416 45.159 189.103 44.898 188.891 44.821V44.821C189.952 44.572 191.904 44.062 194.746 43.291V43.291C199.842 41.919 202.908 41.288 203.943 41.398V41.398C204.416 41.437 204.839 41.677 205.214 42.119V42.119C205.286 42.205 205.439 42.45 205.673 42.856 205.903 43.256 206.111 43.523 206.298 43.658V43.658C205.214 43.231 202.139 43.636 197.074 44.873V44.873C199.143 44.83 200.552 44.862 201.301 44.969 202.049 45.085 202.607 45.166 202.975 45.211 203.347 45.262 203.636 45.3 203.842 45.327 204.048 45.354 204.344 45.396 204.731 45.452 205.118 45.499 205.409 45.541 205.605 45.577 205.8 45.613 206.073 45.665 206.424 45.733 206.775 45.802 207.026 45.872 207.179 45.944 207.322 46.015 207.543 46.098 207.842 46.192 208.141 46.286 208.332 46.381 208.413 46.477 208.494 46.573 208.633 46.683 208.831 46.809 209.024 46.929 209.105 47.057 209.074 47.193V47.193C209.265 47.763 209.182 48.2 208.825 48.502V48.502C208.506 48.773 207.386 49.104 205.467 49.495 203.542 49.891 202.279 50.161 201.678 50.304V50.304C203.629 50.252 205.338 50.332 206.807 50.542 208.281 50.748 209.822 51.157 211.431 51.771 213.044 52.389 214.076 52.965 214.527 53.497V53.497C214.631 53.62 214.698 53.742 214.727 53.863ZM235.513 92.115C235.087 91.835 234.81 91.467 234.683 91.01 234.557 90.559 234.618 90.154 234.866 89.795 235.107 89.438 235.464 89.223 235.936 89.149V89.149C236.416 89.102 236.866 89.223 237.287 89.512 237.713 89.791 237.99 90.16 238.117 90.617 238.243 91.068 238.184 91.479 237.94 91.852 237.702 92.222 237.344 92.431 236.864 92.478 236.384 92.524 235.934 92.404 235.513 92.115ZM219.693 92.298V92.298C219.834 92.802 220.238 93.266 220.907 93.688V93.688C222.171 94.401 224.539 95.096 228.01 95.773V95.773C228.465 95.842 228.637 95.993 228.528 96.226V96.226C228.489 96.295 228.41 96.346 228.289 96.38 228.167 96.414 227.845 96.388 227.321 96.302 226.792 96.225 226.318 96.15 225.9 96.079 225.475 96.009 224.772 95.842 223.793 95.579 222.809 95.324 222.035 95.058 221.472 94.78V94.78C219.909 94.035 218.992 93.175 218.72 92.2 218.448 91.225 218.545 90.441 219.01 89.847 219.483 89.258 220.08 88.864 220.799 88.663 221.525 88.461 222.363 88.412 223.313 88.517V88.517L230.566 89.266C230.742 89.275 230.965 89.242 231.234 89.167 231.496 89.094 231.798 88.836 232.138 88.393V88.393L232.794 90.591C232.965 91.202 232.951 91.594 232.752 91.765 232.554 91.937 232.178 91.954 231.626 91.819V91.819L223.227 90.704C222.111 90.522 221.207 90.528 220.514 90.721V90.721C219.734 90.939 219.461 91.464 219.693 92.298ZM42.413 180.138V180.138C42.395 180.706 42.166 181.09 41.728 181.289V181.289C41.194 181.531 40.284 181.596 38.998 181.482V181.482C34.672 181.123 30.589 181.451 26.749 182.466V182.466C25.698 182.751 24.782 183.071 24 183.426V183.426C22.398 184.154 21.792 184.946 22.182 185.804V185.804L22.355 186.186C22.545 186.605 22.548 186.857 22.364 186.94V186.94C22.084 187.067 21.792 186.889 21.489 186.406V186.406L21.303 185.996C21.093 185.164 21.232 184.388 21.718 183.669 22.195 182.946 22.782 182.408 23.48 182.053 24.168 181.694 24.744 181.41 25.208 181.199V181.199C26.53 180.599 27.977 180.122 29.549 179.768V179.768C26.091 179.361 23.35 178.65 21.326 177.637V177.637C19.434 176.679 18.184 175.529 17.575 174.188V174.188C17.13 173.209 17.103 172.313 17.493 171.5V171.5C18.008 170.423 18.898 169.597 20.163 169.023 21.422 168.451 23.241 168.059 25.62 167.845 27.999 167.631 30.769 167.527 33.931 167.533 37.092 167.539 39.472 167.394 41.07 167.098 42.671 166.808 44.04 166.405 45.178 165.889V165.889C46.869 165.121 47.776 164.165 47.9 163.02V163.02C47.982 161.664 47.713 160.303 47.093 158.936V158.936C45.979 156.482 43.974 154.219 41.077 152.145V152.145C36.762 149.106 32.416 147.698 28.04 147.921V147.921C26.215 148.022 24.66 148.363 23.376 148.946 22.086 149.532 21.021 150.284 20.18 151.202V151.202C18.257 153.248 17.842 155.476 18.936 157.885V157.885C20.22 160.713 22.683 162.321 26.323 162.707V162.707C28.276 162.94 29.844 162.788 31.026 162.251V162.251C32.768 161.46 33.281 160.277 32.565 158.7V158.7C32.395 158.325 32.115 157.885 31.725 157.38 31.341 156.872 31.229 156.609 31.389 156.59V156.59C31.605 156.576 31.994 156.817 32.556 157.313 33.122 157.815 33.546 158.378 33.829 159.001V159.001C34.262 159.954 34.181 160.857 33.587 161.71V161.71C33.155 162.296 32.546 162.769 31.757 163.127 30.969 163.484 29.955 163.707 28.714 163.795V163.795C25.971 163.983 23.479 163.297 21.238 161.739V161.739C19.552 160.61 18.382 159.324 17.727 157.882 17.075 156.445 16.922 154.977 17.269 153.478V153.478C17.868 150.914 19.658 148.955 22.639 147.602 25.614 146.251 29.045 146.066 32.932 147.046V147.046C36.058 147.835 39.166 149.387 42.256 151.702V151.702C44.946 153.693 46.854 155.928 47.98 158.407V158.407C48.568 159.704 48.883 161.013 48.924 162.336V162.336C48.973 165.028 47.618 167 44.86 168.252V168.252C42.8 169.187 39.938 169.689 36.274 169.758V169.758C34.123 169.815 32.14 169.83 30.326 169.802 28.509 169.768 26.731 169.87 24.991 170.108 23.249 170.34 21.856 170.692 20.814 171.165V171.165C18.869 172.048 18.191 173.138 18.779 174.435V174.435C19.411 175.827 21.313 176.934 24.484 177.756V177.756L26.196 178.106C27.958 178.425 30.639 178.657 34.239 178.801 37.842 178.936 39.659 179.012 39.69 179.029V179.029C41.231 179.165 42.139 179.535 42.413 180.138ZM67.085 213.6V213.6C67.464 213.022 67.364 212.544 66.786 212.165V212.165C65.939 211.611 64.638 211.451 62.881 211.687 61.131 211.926 59.534 212.332 58.091 212.906V212.906C57.365 213.315 56.596 213.922 55.786 214.726 54.966 215.533 54.437 216.117 54.2 216.479 53.963 216.841 53.875 217.117 53.934 217.306V217.306L51.919 215.987C51.604 215.781 51.71 215.446 52.239 214.982 52.764 214.525 53.382 214.058 54.095 213.581 54.801 213.101 55.645 212.565 56.625 211.972 57.606 211.379 58.338 210.923 58.821 210.606V210.606C54.915 212.762 52.547 213.92 51.717 214.078V214.078C51.375 214.129 51.309 213.994 51.519 213.673V213.673C51.561 213.609 51.632 213.546 51.73 213.485V213.485C53.116 212.999 56.344 211.312 61.414 208.423 66.483 205.534 69.905 203.711 71.678 202.952V202.952C73.082 202.387 74.127 202.328 74.81 202.775V202.775C74.81 202.775 74.822 202.783 74.845 202.798V202.798L75.003 202.901C75.02 202.913 75.186 203.067 75.5 203.365 75.809 203.658 76.063 203.837 76.263 203.901V203.901C75.084 203.981 73.101 204.639 70.314 205.877 67.53 207.108 65.205 208.264 63.338 209.345 61.481 210.424 60.143 211.288 59.326 211.937V211.937C62.834 210.796 65.544 210.443 67.455 210.876V210.876C68.336 211.11 68.989 211.367 69.416 211.646V211.646C70.35 212.258 70.559 212.958 70.043 213.747V213.747C69.875 214.004 69.633 214.258 69.318 214.511V214.511C68.492 215.122 67.401 215.45 66.044 215.497 64.697 215.541 63.434 215.252 62.256 214.631V214.631C61.609 215.059 61.121 215.524 60.792 216.026 60.467 216.522 60.226 217.011 60.07 217.493V217.493C59.652 218.679 59.72 219.621 60.273 220.317V220.317C60.393 220.453 60.528 220.571 60.68 220.671V220.671C61.276 221.061 62.219 221.149 63.511 220.934V220.934C64.645 220.642 66.465 219.748 68.972 218.251V218.251C69.297 218.073 69.473 218.058 69.5 218.209 69.52 218.356 69.502 218.474 69.445 218.561 69.387 218.649 68.958 218.96 68.157 219.496 67.347 220.033 66.363 220.561 65.205 221.08V221.08C62.79 222.119 60.846 222.156 59.375 221.193V221.193C58.481 220.608 57.957 219.898 57.803 219.063V219.063C57.576 217.88 57.845 216.704 58.61 215.536V215.536C59.004 214.934 59.559 214.43 60.276 214.023 61.002 213.614 61.592 213.529 62.045 213.767V213.767C62.109 213.809 62.174 213.852 62.238 213.894V213.894C62.985 214.383 63.905 214.572 64.996 214.46 66.083 214.354 66.78 214.067 67.086 213.6ZM110.099 225.458V225.458C111.945 225.711 112.71 226.996 112.392 229.313V229.313C112.247 230.371 111.811 231.467 111.085 232.6V232.6C110.154 234.143 108.892 235.488 107.297 236.636V236.636C107.542 237.311 108.091 237.707 108.941 237.823V237.823C109.626 237.917 110.316 237.663 111.012 237.061V237.061C111.88 236.384 112.516 235.774 112.922 235.23 113.336 234.681 113.634 234.278 113.817 234.021 114.007 233.766 114.259 233.395 114.572 232.91 114.885 232.424 115.074 232.129 115.137 232.025 115.202 231.914 115.296 231.868 115.421 231.885V231.885C115.68 231.899 115.795 232.006 115.768 232.207V232.207C115.757 232.283 115.721 232.37 115.658 232.467V232.467L115.357 232.964C115.157 233.296 115.009 233.53 114.913 233.664 114.816 233.806 114.647 234.061 114.406 234.43 114.159 234.791 113.951 235.076 113.781 235.285 113.612 235.494 113.383 235.773 113.096 236.121 112.803 236.461 112.547 236.733 112.329 236.935 112.104 237.137 111.834 237.357 111.52 237.596 111.205 237.834 110.913 238.013 110.643 238.131V238.131C109.954 238.424 109.334 238.532 108.78 238.456V238.456C107.75 238.315 106.989 237.876 106.498 237.139V237.139C105.219 237.837 104.088 238.119 103.106 237.984V237.984C101.266 237.732 100.506 236.447 100.823 234.131V234.131C100.97 233.066 101.402 231.966 102.122 230.832V230.832C103.117 229.171 104.388 227.82 105.933 226.778 107.479 225.729 108.868 225.289 110.099 225.458ZM110.363 226.688V226.688C109.678 226.594 108.807 226.936 107.749 227.714 106.691 228.492 105.692 229.613 104.751 231.076V231.076C103.617 232.773 102.97 234.203 102.81 235.365 102.652 236.52 103.015 237.158 103.9 237.28V237.28C104.53 237.366 105.282 237.124 106.156 236.553V236.553C105.828 235.916 105.709 235.269 105.799 234.612V234.612C106.002 233.541 106.519 233.062 107.349 233.176V233.176C107.674 233.221 107.928 233.369 108.112 233.619 108.295 233.877 108.374 234.103 108.347 234.296 108.321 234.483 108.271 234.673 108.195 234.867V234.867C108.71 234.297 109.324 233.468 110.036 232.382V232.382C110.842 231.182 111.33 229.967 111.498 228.736 111.668 227.498 111.29 226.815 110.363 226.688ZM165.735 217.325V217.325C164.737 223.578 164.516 227.458 165.072 228.964V228.964C165.318 229.632 165.667 229.883 166.119 229.716V229.716C166.689 229.506 167.186 228.836 167.609 227.705V227.705C168.234 225.927 168.609 223.928 168.736 221.709V221.709C168.756 221.322 168.852 221.138 169.023 221.157 169.194 221.176 169.301 221.244 169.344 221.362 169.39 221.487 169.383 221.831 169.324 222.396 169.255 222.957 169.202 223.408 169.164 223.75 169.127 224.091 169.015 224.757 168.83 225.748 168.638 226.741 168.439 227.492 168.232 228 168.027 228.514 167.724 229.054 167.322 229.619 166.923 230.19 166.382 230.601 165.701 230.852 165.02 231.104 164.316 230.98 163.589 230.482V230.482C163.266 230.251 163.005 229.867 162.807 229.33 162.609 228.793 162.487 228.098 162.44 227.245 162.396 226.398 162.596 224.914 163.042 222.793V222.793C163.147 222.271 163.152 221.882 163.058 221.627 162.966 221.378 162.721 221.327 162.321 221.474 161.928 221.619 161.397 222.358 160.728 223.691 160.052 225.027 159.447 226.715 158.913 228.757 158.373 230.802 158.177 232.351 158.328 233.404V233.404C157.922 233.554 157.559 233.498 157.239 233.236 156.926 232.972 156.725 232.719 156.635 232.477V232.477C156.275 231.501 156.248 229.398 156.552 226.168V226.168C156.642 225.101 156.641 224.402 156.549 224.071 156.457 223.741 156.353 223.59 156.237 223.617 156.127 223.643 155.995 223.74 155.842 223.908V223.908C155.487 224.277 155.022 225.044 154.447 226.208V226.208C153.339 228.35 152.551 231.286 152.081 235.016V235.016C152.059 235.321 151.968 235.537 151.806 235.664 151.651 235.788 151.316 235.96 150.802 236.179 150.288 236.398 149.962 236.585 149.826 236.74V236.74C149.952 235.749 150.129 233.909 150.358 231.22V231.22C150.773 226.395 151.191 223.555 151.613 222.7V222.7C151.788 222.308 152.128 222.019 152.632 221.833V221.833C152.724 221.799 152.983 221.745 153.409 221.669 153.828 221.596 154.124 221.499 154.294 221.376V221.376C153.586 222.18 152.971 224.96 152.447 229.713V229.713C153.055 227.912 153.526 226.708 153.86 226.101 154.192 225.488 154.436 225.029 154.592 224.726 154.757 224.427 154.882 224.191 154.967 224.019 155.055 223.852 155.181 223.609 155.345 223.288 155.512 222.973 155.64 222.736 155.73 222.577 155.822 222.424 155.955 222.207 156.127 221.928 156.293 221.651 156.43 221.459 156.54 221.352 156.646 221.238 156.789 221.07 156.968 220.848 157.144 220.619 157.284 220.486 157.389 220.447 157.494 220.409 157.634 220.324 157.808 220.192 157.974 220.057 158.111 220.025 158.219 220.096V220.096C158.768 220.11 159.116 220.32 159.266 220.726V220.726C159.399 221.086 159.332 222.156 159.066 223.936 158.8 225.715 158.633 226.889 158.567 227.457V227.457C159.136 225.751 159.743 224.3 160.388 223.102 161.026 221.907 161.864 220.709 162.902 219.508 163.942 218.314 164.76 217.606 165.356 217.387V217.387C165.5 217.333 165.626 217.313 165.735 217.325ZM205.822 184.301V184.301C207.994 190.249 209.689 193.745 210.907 194.791V194.791C211.447 195.255 211.874 195.304 212.188 194.938V194.938C212.584 194.477 212.691 193.65 212.511 192.456V192.456C212.191 190.599 211.546 188.67 210.577 186.67V186.67C210.407 186.322 210.401 186.114 210.559 186.048 210.717 185.981 210.844 185.989 210.94 186.071 211.04 186.157 211.202 186.462 211.425 186.984 211.638 187.508 211.811 187.927 211.945 188.244 212.078 188.561 212.304 189.197 212.625 190.152 212.941 191.113 213.132 191.866 213.198 192.411 213.27 192.96 213.268 193.579 213.191 194.268 213.121 194.961 212.849 195.583 212.376 196.134 211.903 196.685 211.228 196.92 210.351 196.838V196.838C209.956 196.794 209.542 196.586 209.107 196.213 208.673 195.84 208.228 195.293 207.771 194.57 207.321 193.852 206.774 192.458 206.131 190.388V190.388C205.968 189.881 205.783 189.539 205.577 189.361 205.376 189.188 205.136 189.264 204.859 189.587 204.586 189.905 204.482 190.809 204.546 192.299 204.606 193.794 204.899 195.564 205.427 197.608 205.949 199.657 206.533 201.105 207.177 201.952V201.952C206.895 202.28 206.55 202.408 206.144 202.335 205.742 202.257 205.443 202.134 205.247 201.966V201.966C204.458 201.288 203.41 199.465 202.104 196.495V196.495C201.663 195.519 201.322 194.909 201.081 194.665 200.839 194.421 200.675 194.339 200.587 194.42 200.504 194.496 200.436 194.645 200.383 194.867V194.867C200.253 195.362 200.22 196.258 200.284 197.555V197.555C200.359 199.965 201.099 202.913 202.504 206.4V206.4C202.634 206.677 202.659 206.911 202.579 207.1 202.504 207.284 202.296 207.597 201.953 208.039 201.611 208.481 201.417 208.802 201.373 209.004V209.004C201.001 208.077 200.26 206.383 199.151 203.923V203.923C197.166 199.506 196.149 196.821 196.101 195.869V195.869C196.063 195.441 196.22 195.023 196.57 194.616V194.616C196.633 194.541 196.833 194.368 197.168 194.095 197.499 193.827 197.71 193.598 197.799 193.408V193.408C197.572 194.455 198.387 197.182 200.243 201.59V201.59C199.897 199.72 199.723 198.439 199.719 197.746 199.711 197.049 199.701 196.53 199.69 196.189 199.688 195.848 199.683 195.581 199.673 195.389 199.669 195.201 199.66 194.927 199.647 194.566 199.64 194.21 199.637 193.941 199.638 193.758 199.644 193.579 199.654 193.326 199.669 192.998 199.679 192.675 199.706 192.441 199.749 192.294 199.787 192.142 199.83 191.926 199.877 191.645 199.92 191.36 199.978 191.175 200.05 191.09 200.123 191.005 200.204 190.863 200.293 190.663 200.371 190.464 200.476 190.369 200.605 190.379V190.379C201.091 190.124 201.498 190.138 201.826 190.42V190.42C202.117 190.67 202.58 191.637 203.213 193.321 203.847 195.006 204.273 196.112 204.491 196.64V196.64C204.158 194.873 203.982 193.31 203.963 191.95 203.938 190.595 204.087 189.141 204.409 187.586 204.736 186.037 205.107 185.021 205.521 184.539V184.539C205.621 184.422 205.721 184.343 205.822 184.3ZM220.548 147.668C220.742 148.091 220.781 148.511 220.666 148.928 220.551 149.345 220.315 149.635 219.958 149.797 219.593 149.964 219.21 149.963 218.808 149.794V149.794C218.411 149.604 218.112 149.297 217.911 148.872 217.71 148.447 217.667 148.026 217.783 147.609 217.898 147.192 218.139 146.896 218.506 146.722 218.873 146.549 219.254 146.557 219.651 146.746 220.048 146.935 220.347 147.243 220.548 147.668ZM233.053 155.007V155.007C233.182 154.543 233.086 153.988 232.765 153.341V153.341C232.108 152.181 230.574 150.515 228.162 148.341V148.341C227.839 148.07 227.775 147.868 227.971 147.734V147.734C228.032 147.7 228.119 147.699 228.233 147.73 228.341 147.76 228.583 147.932 228.96 148.246 229.336 148.561 229.674 148.846 229.972 149.102 230.271 149.359 230.744 149.82 231.393 150.484 232.04 151.156 232.522 151.731 232.839 152.21V152.21C233.71 153.537 234.022 154.649 233.774 155.543 233.526 156.438 233.08 157.006 232.433 157.248 231.785 157.496 231.128 157.527 230.462 157.343 229.803 157.161 229.124 156.799 228.426 156.258V156.258L223.083 152.248C222.948 152.16 222.756 152.081 222.507 152.012 222.265 151.945 221.908 152.003 221.438 152.184V152.184L221.956 150.154C222.113 149.589 222.309 149.285 222.546 149.242 222.78 149.205 223.086 149.37 223.463 149.735V149.735L229.52 154.583C230.313 155.252 231.029 155.675 231.668 155.851V155.851C232.381 156.049 232.843 155.767 233.053 155.007ZM0.015 121.934C0.015 114.468 6.068 108.415 13.534 108.415 21.001 108.415 27.054 114.468 27.054 121.934 27.054 129.401 21.001 135.454 13.534 135.454 6.068 135.454 0.015 129.401 0.015 121.934ZM217.392 121.934C217.392 114.468 223.445 108.415 230.912 108.415 238.378 108.415 244.431 114.468 244.431 121.934 244.431 129.401 238.378 135.454 230.912 135.454 223.445 135.454 217.392 129.401 217.392 121.934Z" fill="#ffffff" data-fill-palette-color="accent"></path></svg></g></svg></g></svg></g><defs></defs></svg><rect width="395.52" height="135.1925943733755" fill="none" stroke="none" visibility="hidden"></rect></g></svg></g></svg>